<svg  viewBox="0 0 666 684" fill="none" xmlns="http://www.w3.org/2000/svg">
<path d="M577.011 404.111C564.741 457.592 607.169 527.761 592.235 583.352C577.719 638.47 505.84 679.011 435.339 682.966C365.336 686.813 295.636 653.926 252.623 614.441C209.61 574.956 192.786 528.981 145.72 499.549C98.7334 470.481 21.0067 458.065 4.05051 428.161C-13.4028 398.365 29.3374 350.827 71.2465 313.782C113.156 276.738 153.816 250.661 187.824 198.92C221.911 147.544 248.849 70.6129 305.415 31.5099C361.483 -7.48435 447.1 -9.01504 498.602 24.0306C550.185 57.4408 567.236 125.901 598.021 173.788C629.304 221.567 674.32 248.774 664.21 281.158C654.02 313.177 588.703 350.374 577.011 404.111Z" fill="url(#paint0_linear_531_1296)"/>
<defs>
<linearGradient id="paint0_linear_531_1296" x1="733.498" y1="56.1806" x2="-0.749657" y2="912.878" gradientUnits="userSpaceOnUse">
<stop stop-color="#ECBD79"/>
<stop offset="0.260477" stop-color="#ECC26C" stop-opacity="0.99"/>
<stop offset="0.666667" stop-color="#EABA86"/>
<stop offset="1" stop-color="#ECB479"/>
</linearGradient>
</defs>
</svg>
