<svg  viewBox="0 0 319 290" fill="none" xmlns="http://www.w3.org/2000/svg">
<path d="M234.334 115.644C251.23 138.555 292.328 151.845 309.186 176.285C325.994 200.432 318.563 235.729 297.304 257.363C276.163 278.814 240.79 286.858 211.473 284.862C182.157 282.867 158.78 271.014 132.075 273.825C105.537 276.746 75.5539 294.513 58.4032 288.526C41.1341 282.721 36.4111 253.235 35.5135 227.794C34.616 202.352 37.5933 181.245 28.4067 152.738C19.3882 124.34 -1.91277 88.7223 1.12694 58.3348C4.04827 28.1291 31.1422 3.04383 60.692 0.271829C90.4098 -2.39081 122.633 17.551 151.273 26.0973C180.031 34.4616 205.205 31.4303 214.569 46.0712C223.765 60.6027 217.151 92.8063 234.334 115.644Z" fill="url(#paint0_linear_631_1654)"/>
<defs>
<linearGradient id="paint0_linear_631_1654" x1="239" y1="303.5" x2="115.417" y2="30.353" gradientUnits="userSpaceOnUse">
<stop offset="0.00293263" stop-color="#E7D2B9"/>
<stop offset="0.260477" stop-color="#E7D0B6"/>
<stop offset="0.666667" stop-color="#E8C9A7"/>
<stop offset="1" stop-color="#E9C297"/>
</linearGradient>
</defs>
</svg>
