<svg width="1947" height="2767" viewBox="0 0 1947 2767" fill="none" xmlns="http://www.w3.org/2000/svg">
<path d="M1908.1 1812.48C1800.79 1559.88 1458.28 1387.61 1347.96 1149.62C1234.96 912.01 1350.11 610.678 1293.68 461.391C1235.93 310.871 1006.6 312.396 765.295 200.814C690.99 165.758 630.601 118.941 574.643 70.8009C217.895 -89.0395 -44.1759 -7.92996 14.2874 626.471C-81.3311 1812.48 335.669 2519.47 574.643 2648.47C574.643 2648.47 780.147 2732.37 848.713 2746C1106.11 2797.17 1434.99 2758.78 1660.62 2576.34C1887.63 2392.3 2015.46 2062.22 1908.1 1812.48Z" fill="url(#paint0_linear_629_1671)"/>
<defs>
<linearGradient id="paint0_linear_629_1671" x1="371.611" y1="-94.6972" x2="1753.61" y2="3383.8" gradientUnits="userSpaceOnUse">
<stop stop-color="#E8D6BD"/>
<stop offset="0.723958" stop-color="#E8CCAC"/>
<stop offset="1" stop-color="#E9C195"/>
</linearGradient>
</defs>
</svg>
