<svg width="1520" height="1139" viewBox="0 0 1520 1139" fill="none" xmlns="http://www.w3.org/2000/svg">
<path d="M1011.16 237.244C1116.08 294.42 1297.4 279.131 1404.84 341.927C1511.58 403.739 1544.44 543.635 1500.28 655.243C1456.27 766.006 1334.14 850.033 1217.83 888.164C1101.53 926.296 990.914 919.377 893.028 970.951C795.979 1022.66 711.518 1133.71 635.085 1138.49C558.513 1144.11 488.994 1044.17 441.239 953.02C393.484 861.866 368.191 780.481 283.195 691.009C199.036 601.675 55.0359 505.099 13.8224 389.859C-27.5302 275.464 33.0669 142.267 141.969 86.4313C251.708 30.7337 410.451 53.38 535.557 40.1238C660.803 26.0228 752.413 -23.9808 813.947 14.7763C874.643 53.3957 905.263 180.776 1011.16 237.244Z" fill="url(#paint0_linear_528_1248)"/>
<defs>
<linearGradient id="paint0_linear_528_1248" x1="713" y1="1120.5" x2="456.098" y2="87.6482" gradientUnits="userSpaceOnUse">
<stop offset="0.00293263" stop-color="#ECBD79"/>
<stop offset="0.260477" stop-color="#ECC26C" stop-opacity="0.99"/>
<stop offset="0.666667" stop-color="#EABA86"/>
<stop offset="1" stop-color="#ECB479"/>
</linearGradient>
</defs>
</svg>
