<svg width="705" height="554" viewBox="0 0 705 554" fill="none" xmlns="http://www.w3.org/2000/svg">
<path d="M450.649 93.8214C502.127 112.819 582.633 91.3434 635.659 112.819C688.298 133.882 713.456 197.897 701.845 254.478C690.233 310.646 641.465 360.206 591.922 387.464C542.38 414.722 492.064 420.091 451.811 452.305C411.944 484.519 382.142 543.991 348.081 552.251C314.021 560.924 275.316 518.798 247.061 479.15C218.807 439.502 201.39 402.745 156.492 366.814C111.981 330.883 39.9899 296.191 12.8964 244.566C-14.197 193.354 3.22022 125.209 48.118 90.1044C93.4028 54.9994 166.555 53.3474 221.903 37.2404C277.251 20.7204 314.795 -10.2546 345.372 3.37441C375.562 17.0034 398.785 75.2364 450.649 93.8214Z" fill="url(#paint0_linear_340_2785)"/>
<defs>
<linearGradient id="paint0_linear_340_2785" x1="132.739" y1="-90.556" x2="635.412" y2="759.939" gradientUnits="userSpaceOnUse">
<stop stop-color="#ECBD79"/>
<stop offset="0.260477" stop-color="#ECC26C" stop-opacity="0.99"/>
<stop offset="0.666667" stop-color="#EABA86"/>
<stop offset="1" stop-color="#ECB479"/>
</linearGradient>
</defs>
</svg>
