<svg width="1682" height="1882" viewBox="0 0 1682 1882" fill="none" xmlns="http://www.w3.org/2000/svg">
<path d="M702.589 1648.52C611.187 1525.18 571.571 1415.12 506.03 1340.66C439.248 1266.54 347.782 1227.69 242.239 1142.83C135.455 1058.3 15.3701 926.054 1.81192 809.007C-10.0412 693.011 83.7037 589.45 150.678 410.095C215.946 229.688 256.149 -25.4622 360.185 2.47622C465.925 31.4663 636.739 343.212 766.571 504.529C894.699 664.794 981.38 673.247 1115.04 700.791C1249.16 729.719 1430.25 777.74 1548.95 893.767C1667.65 1009.79 1723.96 1193.83 1645.72 1299.27C1566.24 1405.04 1352.99 1430.5 1234.43 1540.71C1117.57 1651.98 1095.4 1847.99 1014.59 1877.19C933.768 1906.38 792.286 1770.82 702.589 1648.52Z" fill="url(#paint0_linear_530_1295)"/>
<defs>
<linearGradient id="paint0_linear_530_1295" x1="1687.96" y1="2033.83" x2="-963.735" y2="610.765" gradientUnits="userSpaceOnUse">
<stop stop-color="#ECBD79"/>
<stop offset="0.260477" stop-color="#ECC26C" stop-opacity="0.99"/>
<stop offset="0.666667" stop-color="#EABA86"/>
<stop offset="1" stop-color="#ECB479"/>
</linearGradient>
</defs>
</svg>
