<svg  viewBox="0 0 352 412" fill="none" xmlns="http://www.w3.org/2000/svg">
<path d="M257.326 62.5477C268.49 92.1371 269.093 116.292 278.145 134.71C287.499 153.128 304.999 165.809 322.197 188.454C339.697 211.099 356.594 244.009 350.861 268.164C344.827 292.017 316.163 307.717 287.8 340.024C259.74 372.633 231.679 421.546 210.558 410.375C189.135 398.901 174.351 327.343 157.454 288.092C140.859 249.142 122.152 242.802 94.393 230.121C66.6341 217.137 29.8234 197.814 12.0215 168.224C-5.78042 138.635 -4.57351 98.7797 20.7716 81.8714C46.4184 64.9632 95.9017 71.3038 130.6 55.6032C164.997 39.6008 184.61 1.55723 204.825 0.0475607C225.041 -1.4621 246.464 33.2602 257.326 62.5477Z" fill="#f1f0f0"/>
<defs>
<linearGradient id="paint0_linear_327_3264" x1="66.3099" y1="-67.4182" x2="490.081" y2="413.684" gradientUnits="userSpaceOnUse">
<stop stop-color="#ECBD79"/>
<stop offset="0.260477" stop-color="#ECC26C" stop-opacity="0.99"/>
<stop offset="0.666667" stop-color="#EABA86"/>
<stop offset="1" stop-color="#ECB479"/>
</linearGradient>
</defs>
</svg>
