<svg width="858" height="622" viewBox="0 0 858 622" fill="none" xmlns="http://www.w3.org/2000/svg">
<path d="M2.93303 192.163C-14.9347 120.581 65.8025 26.272 158.118 5.4178C250.434 -15.4364 355.22 37.3455 437.533 62.6123C519.203 88.1986 578.399 86.2696 642.028 104.592C705.657 122.914 772.578 160.806 816.256 232.679C859.29 304.872 878.188 410.865 824.575 485.482C770.567 560.918 643.403 605.297 534.73 617.429C425.412 629.88 333.693 609.903 289.796 561.836C245.254 514.089 249.178 437.932 192.83 376.086C136.878 313.42 21.049 264.246 2.93303 192.163Z" fill="#F3D6AE"/>
<defs>
<linearGradient id="paint0_linear_326_239" x1="123.7" y1="702.8" x2="695.784" y2="-360.126" gradientUnits="userSpaceOnUse">
<stop stop-color="#ECBD79"/>
<stop offset="0.260477" stop-color="#ecbd79" stop-opacity="0.99"/>
<stop offset="0.666667" stop-color="#EABA86"/>
<stop offset="1" stop-color="#ecb479"/>
</linearGradient>
</defs>
</svg>
