<svg width="858" height="333" viewBox="0 0 858 333" fill="none" xmlns="http://www.w3.org/2000/svg">
<path d="M2.93327 -96.8366C-14.9344 -168.419 65.8028 -262.728 158.118 -283.582C250.434 -304.436 355.22 -251.654 437.533 -226.388C519.203 -200.801 578.399 -202.73 642.028 -184.408C705.657 -166.086 772.578 -128.194 816.256 -56.3205C859.29 15.8722 878.188 121.865 824.575 196.482C770.567 271.918 643.404 316.297 534.73 328.429C425.413 340.88 333.693 320.903 289.796 272.836C245.255 225.089 249.179 148.932 192.831 87.0859C136.878 24.4202 21.0492 -24.754 2.93327 -96.8366Z" fill="url(#paint0_linear_568_1305)"/>
<defs>
<linearGradient id="paint0_linear_568_1305" x1="123.356" y1="150.419" x2="762.465" y2="-166.65" gradientUnits="userSpaceOnUse">
<stop stop-color="#E0E0E0"/>
<stop offset="0.953125" stop-color="#E0E0E0" stop-opacity="0"/>
</linearGradient>
</defs>
</svg>
