<svg width="467" height="318" viewBox="0 0 467 318" fill="none" xmlns="http://www.w3.org/2000/svg">
<path d="M382.76 266.918C346.661 271.187 319.384 266.376 296.372 271.083C273.284 276.084 254.539 290.307 224.684 302.009C194.751 314.006 153.446 323.119 127.8 312.133C102.571 300.92 92.3214 269.472 63.3479 234.607C33.9577 199.968 -13.7401 161.685 4.24191 143.595C22.6406 125.279 106.797 126.861 155.221 119.164C203.228 111.694 215.164 94.8775 236.55 70.655C258.275 46.4999 289.451 14.9392 327.259 4.20073C365.067 -6.5377 409.508 3.54621 421.968 32.0291C434.35 60.8062 414.49 107.621 423.186 144.951C432.298 182.054 469.966 209.673 466.456 229.715C462.946 249.756 418.443 262.877 382.76 266.918Z" fill="url(#paint0_linear_340_2768)"/>
<defs>
<linearGradient id="paint0_linear_340_2768" x1="577.874" y1="109.781" x2="-26.5445" y2="487.208" gradientUnits="userSpaceOnUse">
<stop stop-color="#ECBD79"/>
<stop offset="0.260477" stop-color="#ECC26C" stop-opacity="0.99"/>
<stop offset="0.666667" stop-color="#EABA86"/>
<stop offset="1" stop-color="#ECB479"/>
</linearGradient>
</defs>
</svg>
