<svg  viewBox="0 0 752 554" fill="none" xmlns="http://www.w3.org/2000/svg">
<path d="M480.864 93.8214C535.793 112.819 621.697 91.3434 678.278 112.819C734.446 133.882 761.291 197.897 748.901 254.478C736.511 310.646 684.473 360.206 631.609 387.464C578.745 414.722 525.055 420.091 482.103 452.305C439.564 484.519 407.763 543.991 371.419 552.251C335.075 560.924 293.775 518.798 263.626 479.15C233.477 439.502 214.892 402.745 166.984 366.814C119.489 330.883 42.6711 296.191 13.7611 244.566C-15.1489 193.354 3.43613 125.209 51.3441 90.1044C99.6651 54.9994 177.722 53.3474 236.781 37.2404C295.84 20.7204 335.901 -10.2546 368.528 3.37441C400.742 17.0034 425.522 75.2364 480.864 93.8214Z" fill="url(#paint0_linear_342_3146)"/>
<defs>
<linearGradient id="paint0_linear_342_3146" x1="141.639" y1="-90.556" x2="628.054" y2="787.612" gradientUnits="userSpaceOnUse">
<stop stop-color="#ECBD79"/>
<stop offset="0.260477" stop-color="#ECC26C" stop-opacity="0.99"/>
<stop offset="0.666667" stop-color="#EABA86"/>
<stop offset="1" stop-color="#ECB479"/>
</linearGradient>
</defs>
</svg>
