<svg width="437" height="310" viewBox="0 0 437 310" fill="none" xmlns="http://www.w3.org/2000/svg">
<path d="M246.598 56.7982C274.771 49.2051 298.542 18.862 334.166 6.75478C370.258 -5.38477 417.984 0.961892 431.762 26.5927C445.757 51.9732 425.586 96.8882 418.994 140.865C412.401 184.841 418.921 227.911 402.424 257.987C385.96 288.531 346.697 305.83 308.082 308.734C269.467 311.638 232.185 299.864 182.303 292.961C132.889 286.025 70.8412 283.491 35.0687 252.793C-0.453471 222.314 -10.2014 163.235 13.9763 121.807C38.1865 80.8471 95.6039 57.3533 140.492 53.31C185.848 49.2343 218.424 64.3913 246.598 56.7982Z" fill="url(#paint0_linear_564_1300)"/>
<defs>
<linearGradient id="paint0_linear_564_1300" x1="-37.0185" y1="81.8293" x2="622.29" y2="165.327" gradientUnits="userSpaceOnUse">
<stop stop-color="#ECBD79"/>
<stop offset="0.260477" stop-color="#ECC26C" stop-opacity="0.99"/>
<stop offset="0.666667" stop-color="#EABA86"/>
<stop offset="1" stop-color="#ECB479"/>
</linearGradient>
</defs>
</svg>
